<?xml version="1.0" encoding="UTF-8" standalone="no"?>
<!-- Generator: Adobe Illustrator 15.0.0, SVG Export Plug-In . SVG Version: 6.00 Build 0)  -->

<svg
   xmlns:dc="http://purl.org/dc/elements/1.1/"
   xmlns:cc="http://creativecommons.org/ns#"
   xmlns:rdf="http://www.w3.org/1999/02/22-rdf-syntax-ns#"
   xmlns:svg="http://www.w3.org/2000/svg"
   xmlns="http://www.w3.org/2000/svg"
   xmlns:sodipodi="http://sodipodi.sourceforge.net/DTD/sodipodi-0.dtd"
   xmlns:inkscape="http://www.inkscape.org/namespaces/inkscape"
   version="1.1"
   id="Layer_1"
   x="0px"
   y="0px"
   width="512px"
   height="512px"
   viewBox="0 0 512 512"
   enable-background="new 0 0 512 512"
   xml:space="preserve"
   inkscape:version="0.91 r13725"
   sodipodi:docname="javascript-icon.svg"><metadata
     id="metadata21"><rdf:RDF><cc:Work
         rdf:about=""><dc:format>image/svg+xml</dc:format><dc:type
           rdf:resource="http://purl.org/dc/dcmitype/StillImage" /><dc:title>Slice 1</dc:title></cc:Work></rdf:RDF></metadata><defs
     id="defs19" /><sodipodi:namedview
     pagecolor="#ffffff"
     bordercolor="#666666"
     borderopacity="1"
     objecttolerance="10"
     gridtolerance="10"
     guidetolerance="10"
     inkscape:pageopacity="0"
     inkscape:pageshadow="2"
     inkscape:window-width="691"
     inkscape:window-height="480"
     id="namedview17"
     showgrid="false"
     inkscape:zoom="0.4609375"
     inkscape:cx="256"
     inkscape:cy="256"
     inkscape:window-x="0"
     inkscape:window-y="0"
     inkscape:window-maximized="0"
     inkscape:current-layer="Layer_1" /><title
     id="title3">Slice 1</title><description>Created with Sketch (http://www.bohemiancoding.com/sketch)</description><path
     id="Shape_2_"
     fill="#EDEDED"
     d="M255.862,455.896l142.854-39.605l33.608-376.509H255.862V455.896z" /><path
     id="Shape_3_"
     fill="#F16565"
     d="M255.86,199.433h71.516l4.939-55.343H255.86V90.041h0.188h135.335l-1.296,14.501  l-13.283,148.935H255.86V199.433z" /><path
     id="Shape_6_"
     fill="#D86161"
     d="M256.048,90.041v33.569v20.346v0.134H125.674h-0.173l-1.084-12.149l-2.463-27.398  l-1.292-14.501H256.048z" /><path
     id="Shape_7_"
     fill="#D86161"
     d="M255.86,199.438v33.571v20.342v0.135h-59.256h-0.173l-1.083-12.147l-2.464-27.398  l-1.292-14.501H255.86z" /><polygon
     fill="#FEFEFE"
     points="471.673,11.912 256,11.912 40.328,11.912 80.746,450.402 256,500.088 431.191,450.402 "
     id="polygon9"
     style="opacity:0.95;fill:#e5a228;fill-opacity:1" /><polygon
     fill="#EDEDED"
     points="256,39.471 256,454.793 397.916,414.563 432.478,39.471 "
     id="polygon11"
     style="fill:#f1bf26;fill-opacity:1" /><polygon
     fill="#F16565"
     points="368.909,93.243 150.625,93.243 135.454,257.426 135.776,256.397 321.195,256.397 315.146,325.844   256,342.896 195.95,325.588 192.345,283.559 137.833,283.559 145.625,367.547 256,398.893 366.378,367.547 381.569,202.722   184.817,202.722 187.321,147.758 323.889,147.758 325.897,179.218 380.9,179.218 "
     id="polygon13"
     style="fill:#ffffff;fill-opacity:1" /><path
     fill="#D86161"
     d="M256,93.276H150.622l-15.17,164.183l0.327-1.029H256v-53.675h-63.593l2.505-54.964H256V93.276z   M192.347,283.592h-54.514l7.786,83.988L256,398.859v-55.93l-60.05-17.309L192.347,283.592z"
     id="path15"
     style="fill:#ecedee;fill-opacity:1" /></svg>