<?xml version="1.0" encoding="UTF-8" standalone="no"?>
<!DOCTYPE svg PUBLIC "-//W3C//DTD SVG 1.1//EN" "http://www.w3.org/Graphics/SVG/1.1/DTD/svg11.dtd">
<svg version="1.1" xmlns="http://www.w3.org/2000/svg" xmlns:xlink="http://www.w3.org/1999/xlink" preserveAspectRatio="xMidYMid meet" viewBox="0 0 200 200"><defs><path d="M171.87 25C175.33 25 178.12 27.8 178.12 31.25C178.12 67.5 178.12 170 178.12 206.25C178.12 209.7 175.33 212.5 171.87 212.5C141.87 212.5 58.12 212.5 28.13 212.5C24.67 212.5 21.87 209.7 21.87 206.25C21.87 170 21.87 67.5 21.87 31.25C21.87 27.8 24.67 25 28.12 25C58.12 25 141.87 25 171.87 25Z" id="Qx8U8zNupF"></path><path d="M21.87 75L178.12 75L178.12 200L21.87 200L21.87 75Z" id="r4euBZUKVv"></path><path d="M160.68 35.16C163.41 35.16 165.62 37.37 165.62 40.11C165.62 45.05 165.62 54.95 165.62 59.89C165.62 62.63 163.41 64.84 160.68 64.84C135.42 64.84 64.58 64.84 39.32 64.84C36.59 64.84 34.38 62.63 34.38 59.89C34.38 54.95 34.38 45.05 34.38 40.11C34.38 37.37 36.59 35.16 39.32 35.16C64.58 35.16 135.42 35.16 160.68 35.16Z" id="TvZQHPLNlb"></path><path d="M53.13 84.37C56.58 84.37 59.38 87.17 59.38 90.62C59.38 95.62 59.38 104.38 59.38 109.37C59.38 112.83 56.58 115.62 53.13 115.62C48.13 115.63 39.38 115.63 34.38 115.62C30.92 115.62 28.13 112.83 28.13 109.37C28.13 104.38 28.13 95.62 28.13 90.62C28.13 87.17 30.92 84.37 34.38 84.37C39.38 84.37 48.13 84.37 53.13 84.37Z" id="ezTJLfRip5"></path><path d="M90.63 84.38C94.08 84.38 96.88 87.17 96.88 90.63C96.88 95.63 96.88 104.38 96.88 109.38C96.88 112.83 94.08 115.63 90.63 115.63C85.63 115.63 76.88 115.63 71.88 115.63C68.42 115.63 65.63 112.83 65.63 109.38C65.63 104.38 65.63 95.63 65.63 90.63C65.63 87.17 68.42 84.38 71.88 84.38C76.88 84.38 85.63 84.38 90.63 84.38Z" id="vBFLGIcsdP"></path><path d="M128.13 84.37C131.58 84.37 134.38 87.17 134.38 90.62C134.38 95.62 134.38 104.38 134.38 109.37C134.38 112.83 131.58 115.62 128.13 115.62C123.13 115.63 114.38 115.63 109.38 115.62C105.92 115.62 103.13 112.83 103.13 109.37C103.13 104.38 103.13 95.62 103.13 90.62C103.13 87.17 105.92 84.37 109.38 84.37C114.38 84.37 123.13 84.37 128.13 84.37Z" id="VeStQg727N"></path><path d="M165.63 84.38C169.08 84.38 171.88 87.17 171.88 90.63C171.88 95.63 171.88 104.38 171.88 109.38C171.88 112.83 169.08 115.63 165.63 115.63C160.63 115.63 151.88 115.63 146.88 115.63C143.42 115.63 140.63 112.83 140.63 109.38C140.63 104.38 140.63 95.63 140.63 90.63C140.63 87.17 143.42 84.38 146.88 84.38C151.88 84.38 160.63 84.38 165.63 84.38Z" id="w7QDUy3yul"></path><path d="M53.12 121.87C56.58 121.87 59.37 124.67 59.37 128.13C59.37 133.13 59.37 141.88 59.37 146.88C59.37 150.33 56.58 153.13 53.12 153.13C48.12 153.13 39.37 153.13 34.37 153.13C30.92 153.13 28.12 150.33 28.12 146.88C28.12 141.88 28.12 133.13 28.12 128.13C28.12 124.67 30.92 121.87 34.37 121.87C39.37 121.88 48.12 121.88 53.12 121.87Z" id="v2HeI9M1Hn"></path><path d="M90.62 121.88C94.08 121.88 96.87 124.67 96.87 128.13C96.87 133.13 96.87 141.88 96.87 146.88C96.87 150.33 94.08 153.13 90.62 153.13C85.62 153.13 76.87 153.13 71.87 153.13C68.42 153.13 65.62 150.33 65.62 146.88C65.62 141.88 65.62 133.13 65.62 128.13C65.62 124.67 68.42 121.88 71.87 121.88C76.87 121.88 85.62 121.88 90.62 121.88Z" id="zd2Po2GMIJ"></path><path d="M128.12 121.87C131.58 121.87 134.37 124.67 134.37 128.13C134.37 133.13 134.37 141.88 134.37 146.88C134.37 150.33 131.58 153.13 128.12 153.13C123.12 153.13 114.37 153.13 109.37 153.13C105.92 153.13 103.12 150.33 103.12 146.88C103.12 141.88 103.12 133.13 103.12 128.13C103.12 124.67 105.92 121.87 109.37 121.87C114.37 121.88 123.12 121.88 128.12 121.87Z" id="Y7ghAYzRRV"></path><path d="M165.62 121.88C169.08 121.88 171.87 124.67 171.87 128.13C171.87 133.13 171.87 141.88 171.87 146.88C171.87 150.33 169.08 153.13 165.62 153.13C160.62 153.13 151.87 153.13 146.87 153.13C143.42 153.13 140.62 150.33 140.62 146.88C140.62 141.88 140.62 133.13 140.62 128.13C140.62 124.67 143.42 121.88 146.87 121.88C151.87 121.88 160.62 121.88 165.62 121.88Z" id="PZUnHGSXL"></path><path d="M53.12 159.38C56.58 159.38 59.37 162.17 59.37 165.63C59.37 170.63 59.37 179.38 59.37 184.38C59.37 187.83 56.58 190.63 53.12 190.63C48.12 190.63 39.37 190.63 34.37 190.63C30.92 190.63 28.12 187.83 28.12 184.38C28.12 179.38 28.12 170.63 28.12 165.63C28.12 162.17 30.92 159.38 34.37 159.38C39.37 159.38 48.12 159.38 53.12 159.38Z" id="KzfBGnnzat"></path><path d="M90.63 196.88C94.08 196.88 96.88 199.67 96.88 203.13C96.88 208.13 96.88 216.88 96.88 221.88C96.88 225.33 94.08 228.13 90.63 228.13C85.63 228.13 76.88 228.13 71.88 228.13C68.42 228.13 65.63 225.33 65.63 221.88C65.63 216.88 65.63 208.13 65.63 203.13C65.63 199.67 68.42 196.88 71.88 196.88C76.88 196.88 85.63 196.88 90.63 196.88Z" id="lmcp7UH4D0"></path><path d="M90.63 159.38C94.08 159.38 96.88 162.17 96.88 165.63C96.88 170.63 96.88 179.38 96.88 184.38C96.88 187.83 94.08 190.63 90.63 190.63C85.63 190.63 76.88 190.63 71.88 190.63C68.42 190.63 65.63 187.83 65.63 184.38C65.63 179.38 65.63 170.63 65.63 165.63C65.63 162.17 68.42 159.38 71.88 159.38C76.88 159.38 85.63 159.38 90.63 159.38Z" id="s35qwFWrT1"></path><path d="M53.12 196.88C56.58 196.88 59.37 199.67 59.37 203.13C59.37 208.13 59.37 216.88 59.37 221.88C59.37 225.33 56.58 228.13 53.12 228.13C48.12 228.13 39.37 228.13 34.37 228.13C30.92 228.13 28.12 225.33 28.12 221.88C28.12 216.88 28.12 208.13 28.12 203.13C28.12 199.67 30.92 196.88 34.37 196.88C39.37 196.88 48.12 196.88 53.12 196.88Z" id="wc9P3QEW85"></path><path d="M128.13 159.38C131.58 159.38 134.38 162.17 134.38 165.63C134.38 170.63 134.38 179.38 134.38 184.38C134.38 187.83 131.58 190.63 128.13 190.63C123.13 190.63 114.38 190.63 109.37 190.63C105.92 190.63 103.12 187.83 103.12 184.38C103.13 179.38 103.13 170.63 103.12 165.63C103.12 162.17 105.92 159.38 109.37 159.38C114.38 159.38 123.13 159.38 128.13 159.38Z" id="O7dDTimGHR"></path><path d="M165.63 159.38C169.08 159.38 171.88 162.17 171.88 165.63C171.88 173.75 171.88 191.87 171.88 200C171.88 203.45 169.08 206.25 165.63 206.25C160.63 206.25 151.88 206.25 146.88 206.25C143.42 206.25 140.63 203.45 140.63 200C140.63 191.87 140.63 173.75 140.63 165.63C140.63 162.17 143.42 159.38 146.88 159.38C151.88 159.38 160.63 159.38 165.63 159.38Z" id="vC8knCKrnV"></path><path d="M128.13 196.88C131.58 196.88 134.38 199.67 134.38 203.13C134.38 208.13 134.38 216.88 134.38 221.88C134.38 225.33 131.58 228.13 128.13 228.13C123.13 228.13 114.38 228.13 109.37 228.13C105.92 228.13 103.12 225.33 103.12 221.88C103.13 216.88 103.13 208.13 103.12 203.13C103.12 199.67 105.92 196.88 109.37 196.88C114.38 196.88 123.13 196.88 128.13 196.88Z" id="IdcpeELL2r"></path><path d="M140.63 41.08L153.13 41.08L153.13 58.92L140.63 58.92L140.63 41.08Z" id="VeYWbGpjun"></path></defs><g visibility="inherit"><g visibility="inherit"><g><use xlink:href="#Qx8U8zNupF" opacity="1" fill="#d6d6d6" fill-opacity="1"></use></g><g><use xlink:href="#r4euBZUKVv" opacity="1" fill="#a6a6a6" fill-opacity="1"></use></g><g><use xlink:href="#TvZQHPLNlb" opacity="1" fill="#a6a6a6" fill-opacity="1"></use></g><g><use xlink:href="#ezTJLfRip5" opacity="1" fill="#d04444" fill-opacity="1"></use></g><g><use xlink:href="#vBFLGIcsdP" opacity="1" fill="#d04444" fill-opacity="1"></use></g><g><use xlink:href="#VeStQg727N" opacity="1" fill="#666666" fill-opacity="1"></use></g><g><use xlink:href="#w7QDUy3yul" opacity="1" fill="#666666" fill-opacity="1"></use></g><g><use xlink:href="#v2HeI9M1Hn" opacity="1" fill="#e8e8e8" fill-opacity="1"></use></g><g><use xlink:href="#zd2Po2GMIJ" opacity="1" fill="#e8e8e8" fill-opacity="1"></use></g><g><use xlink:href="#Y7ghAYzRRV" opacity="1" fill="#e8e8e8" fill-opacity="1"></use></g><g><use xlink:href="#PZUnHGSXL" opacity="1" fill="#666666" fill-opacity="1"></use></g><g><use xlink:href="#KzfBGnnzat" opacity="1" fill="#e8e8e8" fill-opacity="1"></use></g><g><use xlink:href="#lmcp7UH4D0" opacity="1" fill="#e8e8e8" fill-opacity="1"></use></g><g><use xlink:href="#s35qwFWrT1" opacity="1" fill="#e8e8e8" fill-opacity="1"></use></g><g><use xlink:href="#wc9P3QEW85" opacity="1" fill="#e8e8e8" fill-opacity="1"></use></g><g><use xlink:href="#O7dDTimGHR" opacity="1" fill="#e8e8e8" fill-opacity="1"></use></g><g><use xlink:href="#vC8knCKrnV" opacity="1" fill="#3f7be4" fill-opacity="1"></use></g><g><use xlink:href="#IdcpeELL2r" opacity="1" fill="#e8e8e8" fill-opacity="1"></use></g><g><use xlink:href="#VeYWbGpjun" opacity="1" fill="#666666" fill-opacity="1"></use></g></g></g></svg>