<?xml version="1.0" encoding="UTF-8"?>
<!DOCTYPE svg PUBLIC "-//W3C//DTD SVG 1.1//EN" "http://www.w3.org/Graphics/SVG/1.1/DTD/svg11.dtd">
<!-- Creator: CorelDRAW X7 -->
<svg xmlns="http://www.w3.org/2000/svg" xml:space="preserve" width="7.5in" height="8.5in" version="1.1" style="shape-rendering:geometricPrecision; text-rendering:geometricPrecision; image-rendering:optimizeQuality; fill-rule:evenodd; clip-rule:evenodd"
viewBox="0 0 7500 8500"
 xmlns:xlink="http://www.w3.org/1999/xlink">
 <defs>
  <style type="text/css">
   <![CDATA[
    .fil0 {fill:#1572B6}
    .fil1 {fill:#33A9DC}
    .fil3 {fill:#EBEBEB}
    .fil2 {fill:white}
   ]]>
  </style>
 </defs>
 <g id="Layer_x0020_1">
  <metadata id="CorelCorpID_0Corel-Layer"/>
  <description>
   CSS SVG Logo source http://jaspreetchahal.org  </description>
  <g id="_629226080">
   <path id="Shape" class="fil0" d="M824 7529l-657 -7377 7226 0 -658 7375 -2959 821 -2952 -819zm0 0z"/>
   <path id="Shape_0" class="fil1" d="M3780 7721l2391 -663 563 -6303 -2954 0 0 6966zm0 0z"/>
   <path id="Shape_1" class="fil2" d="M3780 3428l1197 0 83 -927 -1280 0 0 -904 3 0 2266 0 -22 242 -223 2493 -2024 0 0 -904zm0 0z"/>
   <path id="Shape_2" class="fil3" d="M3785 5777l-4 1 -1007 -272 -64 -721 -490 0 -419 0 127 1420 1853 515 4 -1 0 -942zm0 0z"/>
   <path id="Shape_3" class="fil2" d="M4900 4294l-109 1212 -1009 272 0 941 1855 -514 14 -153 157 -1758 -908 0zm0 0z"/>
   <path id="Shape_4" class="fil3" d="M3783 1597l0 562 0 340 0 2 -2182 0 -3 0 -18 -203 -41 -459 -22 -242 2266 0zm0 0z"/>
   <path id="Shape_5" class="fil3" d="M3780 3428l0 562 0 340 0 3 -992 0 -3 0 -18 -204 -41 -458 -22 -243 1076 0zm0 0z"/>
  </g>
 </g>
</svg>
