<?xml version="1.0" encoding="UTF-8" standalone="no"?>
<svg
   xmlns:dc="http://purl.org/dc/elements/1.1/"
   xmlns:cc="http://creativecommons.org/ns#"
   xmlns:rdf="http://www.w3.org/1999/02/22-rdf-syntax-ns#"
   xmlns:svg="http://www.w3.org/2000/svg"
   xmlns="http://www.w3.org/2000/svg"
   xmlns:sodipodi="http://sodipodi.sourceforge.net/DTD/sodipodi-0.dtd"
   xmlns:inkscape="http://www.inkscape.org/namespaces/inkscape"
   viewBox="39 -18.3 60.000001 59.999998"
   enable-background="new 39 -18.3 121.7 81.3"
   id="svg2"
   version="1.1"
   inkscape:version="0.91 r13725"
   sodipodi:docname="jade-logo.svg"
   width="60"
   height="60">
  <metadata
     id="metadata10">
    <rdf:RDF>
      <cc:Work
         rdf:about="">
        <dc:format>image/svg+xml</dc:format>
        <dc:type
           rdf:resource="http://purl.org/dc/dcmitype/StillImage" />
        <dc:title></dc:title>
      </cc:Work>
    </rdf:RDF>
  </metadata>
  <defs
     id="defs8" />
  <sodipodi:namedview
     pagecolor="#ffffff"
     bordercolor="#666666"
     borderopacity="1"
     objecttolerance="10"
     gridtolerance="10"
     guidetolerance="10"
     inkscape:pageopacity="0"
     inkscape:pageshadow="2"
     inkscape:window-width="1376"
     inkscape:window-height="811"
     id="namedview6"
     showgrid="false"
     inkscape:zoom="2.4404273"
     inkscape:cx="-1.506234e-006"
     inkscape:cy="40.650002"
     inkscape:window-x="55"
     inkscape:window-y="125"
     inkscape:window-maximized="0"
     inkscape:current-layer="svg2" />
  <path
     d="m 57.797308,12.893263 c 0,-1 -0.1,-1.9 -0.1,-2.4 0,-0.6000001 0.4,-0.7000001 0.4,-0.7000001 0.2,-0.1 0.4,-0.2 0.7,-0.3 0.1,0 0.2,0.1 0.2,0.2 -0.7,2.9000001 -0.6,6.0000001 -0.6,9.0000001 l 0,3.8 c 0,0.6 0,1.6 -0.5,2.1 -0.8,0.9 -2.9,0.6 -3.2,-0.7 -0.3,-1.1 -0.1,-2.2 -0.3,-3.3 -0.1,-0.8 -0.2,-1.8 0.4,-2.5 0.8,-0.8 0.6,1.4 0.6,1.7 l 0,2.3 c 0,0.6 0,1.8 0.6,2.1 1.2,0.7 1.4,-1.5 1.4,-2.2 l 0.1,-3.5 c 0.1,-0.9 0.1,-1.8 0.2,-2.6 l 0,-1.6 0.1,-1.4 z m 5.5,3.8 c 0.2,0.4 0.2,1 0.2,1.5 0,0.6 -0.1,1.2 -0.2,1.9 -0.2,1.2 -0.5,2.4 -0.3,3.6 l 0,0.3 0.1,0.2 c 0,0.1 0,0.2 -0.1,0.2 l -0.4,0.3 c -0.4,0.1 -0.8,0.1 -1.2,0 -0.9,-0.2 -1.6,-0.8 -1.7,-1.8 0,-0.3 0,-0.6 -0.1,-0.9 l -0.1,-0.9 c 0,-0.5 0.1,-1 0.5,-1.4 0.3,-0.2 0.8,-0.4 1.2,-0.5 l 0.9,0 c 0.1,0 0.3,0 0.4,-0.1 0.1,-0.1 0.1,-0.2 0.1,-0.3 0,-0.3 0,-0.7 -0.1,-1 -0.3,-1 -1.5,-0.3 -2.1,-0.2 -0.3,0.1 -0.5,-0.1 -0.6,-0.3 -0.1,-0.3 0.1,-0.5 0.3,-0.7 0.3,-0.2 0.7,-0.4 1.1,-0.5 0.8,-0.2 1.7,-0.2 2.1,0.6 z m -0.8,3.7 c -0.2,-0.4 -0.6,-0.3 -0.9,-0.2 -0.7,0.2 -1.2,0.5 -1.3,1.2 -0.1,0.6 0,1.3 0.2,1.8 0.1,0.3 0.3,0.4 0.6,0.5 0.2,0.1 0.6,0.2 0.8,0.1 0.3,-0.2 0.3,-0.7 0.4,-1 l 0.2,-1.5 c 0.1,-0.3 0.1,-0.6 0,-0.9 z m -2.1,-2.7 c -0.3,0.1 0.4,-0.1 0,0 z m 6.6,19.6 c 0.1,-0.3 0.3,-0.6 0.3,-1 0,-0.3 -0.4,-0.5 -0.6,-0.6 -0.5,-0.2 -1.1,0.3 -0.8,0.8 0,0.3 0,0.5 0.2,0.7 l 1.4,0.9 c 0.1,0.1 0.3,0 0.2,-0.2 l -0.7,-0.6 z m 13.4,-23.6 c -1,-0.2 -2,-0.5 -3,-0.3 -0.4,0.1 -2,0.4 -1.1,0.9 l 0.1,0 c 0.7,1.4 2.4,1.4 3.8,1.6 0.8,0.1 1.7,0.2 2.4,-0.3 0.3,-0.2 0.3,-0.6 0,-0.8 -0.6,-0.7 -1.4,-0.9 -2.2,-1.1 z m -9.5,10.1 c 0.2,-0.1 0.5,-0.1 0.7,-0.1 0.2,0 0.5,0.2 0.3,0.3 -0.1,0.1 -0.3,0.2 -0.5,0.2 -0.2,0.1 -0.4,0.2 -0.6,0.2 -0.7,0.3 -1.7,0.4 -2.2,-0.4 -0.2,-0.3 -0.2,-0.8 -0.3,-1.3 l 0,-1.7 c 0,-0.9 -0.1,-1.9 0.4,-2.7 0.3,-0.5 1,-1.3 1.6,-0.9 0.5,0.3 0.8,1 1,1.6 0.2,0.4 0.6,1.3 0.2,1.7 -0.2,0.2 -0.5,0.2 -0.8,0.2 -0.4,0 -0.9,-0.1 -1.3,0 -0.5,0.1 -0.4,0.5 -0.4,0.9 0,0.5 0.1,1.1 0.2,1.6 0.1,0.3 0.3,0.7 0.7,0.8 0.3,-0.2 0.7,-0.3 1,-0.4 0.4,-0.1 -0.8,0.3 0,0 z m -1.9,-5.1 c -0.2,0.5 -0.2,1.1 -0.1,1.6 0.4,-0.1 0.8,0.1 1.2,0.1 l 0.6,0 c 0.1,0 0.2,0 0.3,-0.1 0.3,-0.2 0.1,-0.8 0,-1 -0.3,-0.7 -1.6,-1.5 -2,-0.6 -0.2,0.5 0.3,-0.8 0,0 z m 26.499996,17.1 c -0.7,0.5 -0.4,1.2 -0.8,1.8 -0.5,0.5 -1.6,0.5 -2.2,0.5 -2.499996,0 -4.999996,-0.2 -7.499996,0 -0.6,0.1 -1.2,0.1 -1.8,0.3 -0.2,0 -0.5,0.2 -0.7,0.1 -0.5,-0.3 -1,-1.1 -1.6,-0.8 -0.6,0.2 -1,1 -1.6,0.5 -1.2,-0.9 -2.2,-0.1 -3.5,0.2 -1.3,0.3 -2.6,-0.5 -3.9,-0.1 -1,0.3 -1.9,0.6 -2.9,0.2 -1,-0.3 -1.3,-1.1 -0.4,-1.8 1.4,-1.1 3,-1.3 4.8,-1.2 2.6,0.2 5.1,0 7.7,-0.1 0.1,0 0.1,0 0.1,0.1 1.1,0.4 1.8,-0.5 2.4,-1.2 0.1,-0.1 0.2,-0.1 0.3,0 0.9,1.4 2.1,-0.2 3.2,-0.1 0.3,0 0.6,0.1 0.8,0.4 0.1,0.1 0.1,0.3 0.1,0.4 0.1,0.7 0.9,0.6 0.9,-0.2 0,-0.1 0.1,-0.2 0.2,-0.2 0.9,0.4 2.1,0.9 2.899996,-0.1 0.6,-0.8 0.7,-2 0.8,-3 0.1,-2.7 -0.1,-5.4 -0.2,-8 -0.2,-2.6 -0.4,-5.2 -0.1,-7.8 0.3,-2.6 0.3,-5.1 0.2,-7.6000001 0,-1.3 -0.1,-2.7 0,-4 0.1,-1.2 0.3,-2.6 0.1,-3.80000002 -0.1,-1.09999998 -0.8,-2.09999998 -0.9,-3.09999998 -0.1,-1 0,-2 0.2,-3 0.1,-0.6 0.4,-1.3 0.4,-2 0,-0.5 -0.1,-1.1 0,-1.6 0,-0.2999996 0,-0.6999999 0.2,-0.8999999 0.3,-0.4 0.5,-0.9 -0.2,-1 -1.699996,-0.2 -3.499996,-1.3 -5.199996,-0.2 0,0.4 0.1,0.8 0,1.2 0.1,0.1 0.2,0.2 0.2,0.3 0.4,0.2000003 0.8,0.2000003 1.3,0.2000003 l 1.6,-0.1 c 0.5,0.1 0.8,0.3999996 0.7,0.8999996 -0.1,0.4 -0.4,0.7 -0.6,1 -0.3,0.6 -0.3,1.3 -0.3,2 0,1.6 0,3.2 0.1,4.8 0,1.29999998 0.2,2.7 0.3,4 l 0.1,0.1 c 0.1,1.5 0.6,3 0.6,4.5 l -0.4,1.8 c 0,1.9000001 -0.2,5.5000001 -0.2,5.5000001 0,3.3 -0.6,6.6 0,9.9 0.2,1.3 -0.3,2.6 -0.3,3.9 -0.1,1.4 0.1,2.9 -0.1,4.3 0,0.1 0,0.2 -0.1,0.2 -3,0.6 -6.1,0.7 -9.1,0.5 -0.8,0 -1.7,-0.1 -2.4,0.2 -0.3,0.1 -0.7,0.3 -1,0.3 l -1.1,-0.5 c -0.5,-0.1 -1,-0.2 -1.6,-0.3 -1.4,-0.2 -2.7,-0.3 -4,0.3 -0.7,0.3 -1.4,0.2 -2.1,-0.1 -0.8,-0.3 -1.5,-0.8 -2.4,-0.3 -0.4,0.2 -0.7,0.4 -1.1,0.5 -0.3,0.1 -0.7,0 -1,-0.1 -0.7,-0.3 -1.3,-0.3 -2,-0.2 0.1,0.1 0,0.3 -0.1,0.3 -4.5,-0.2 -9,0.3 -13.4,0.3 -0.2,0.1 -0.4,0.3 -0.5,0.3 l -0.1,0 c -0.1,0 -0.1,-0.4 -0.1,-0.4 -0.6,-0.7 -0.5,-2.8 -0.4,-3.5 0.2,-4.2 -0.3,-8.3 -0.5,-12.5 -0.1,-2.1 -0.1,-4.1 0.3,-6.2 0.4,-2.3000001 0.4,-4.5000001 0.3,-6.9000001 l 0.2,-13.8 c 0,-0.1 0.1,-0.1 0.1,-0.1 l 0.1,0 c 1.2,-0.1 2.6,-0.3999996 3.8,-0.1 l 1.7,0 c 0.1,0 0.1,0 0.1,0.1 2.4,0 4.8,-0.2 7.2,-0.3 0.8,0 1.7,0 2.5,-0.2999996 0.4,-0.1 0.9,-0.3000003 1.4,-0.3000003 1.1,0.1 2.2,0.4000003 3.3,0.6999999 0.8,0.2 1.3,-1.1999999 2,-0.6999999 1,0.6999999 2.2,0.4000003 3.4,0.4000003 0.6,0 1.2,-0.1 1.9,-0.1 0.3,0 0.6,0.1 0.9,0.2 0.3,-0.1 0.6,0 0.9,0.1 l 5.6,-0.1999996 c 1.1,0 2.4,0.1 3.4,-0.2999997 0.3,-0.1 0.4,-0.3 0.5,-0.5 l -0.1,-0.3 -0.3,-0.5 c -1.2,-0.4 -2.6,-0.3 -3.9,-0.3 -1.7,-0.1 -3.4,0.2 -5.2,0.3 -1.6,0.1 -3.3,0.2 -4.9,0.1 -0.9,-0.1 -2.7,-0.5 -3.5,0.2 -0.1,0.1 -0.2,0.1 -0.2,0 -1.6,-1.3 -3.6,0.6 -5.4,0.1 -1.1,-0.3 -2.1,-0.5 -3.2,-0.4 -1.1,0.1 -2.1,0.3 -3.2,0.2 l -7.2,0.1 c -0.5,0 -1,0 -1.5,-0.1 -0.4,-0.1 -1,-0.2 -1.4,-0.1 -0.7,0.2 -0.8,0.5 -0.7,0.7 0.2,0.1 -0.4,0.9999993 -0.5,1.3999993 l 0,1.1 c -0.2,1.7 -0.3,3.2 -0.7,4.7 -0.2,0.8 -0.6,2 -0.3,2.89999998 l 0.8,1.4 c 0.4,0.90000002 0.4,2.00000002 0.4,3.00000002 -0.1,3.1 -0.1,6.2999997 -0.2,9.5000007 -0.1,3.2 -0.3,6.3 -0.2,9.5 0.1,2.9 0.6,5.9 0.2,8.8 -0.1,1 -1.3,2.7 -0.2,3.4 0.6,0.4 1.4,0.5 2.1,0.5 1.8,0.1 3.6,-0.1 5.4,-0.3 0.7,-0.1 1.3,-0.2 2,-0.2 0.5,0 1,0 1.5,0.2 0.4,0.2 1.1,0.4 1.6,0.4 0,0 0.8,0 0.8,-0.2 0.7,-0.3 1.2,-0.5 2.1,-0.3 0.8,0.2 1.6,0.3 2.4,0.1 0.4,-0.1 1.1,-0.1 1.6,0 l 0.2,0.1 c 0.2,-0.1 -0.1,0.2 -0.3,0.3 -1,0.4 -0.7,1.7 -0.8,2.5 0,0.1 -0.1,0.1 -0.2,0.1 -0.4,0 -0.9,0 -1.2,-0.4 -0.5,-0.9 -1.6,-1.4 -1.6,0.3 0,0.1 -0.1,0.2 -0.2,0.2 -0.1,0 -0.2,-0.1 -0.2,-0.2 0,-0.1 -1.2,-0.7 -1.3,-0.8 -0.6,-0.3 -1.2,-0.7 -1.9,-0.5 -0.4,0.1 -0.8,0.4 -1.2,0.6 -0.7,0.9 -1.4,1.8 -2.5,1.2 -0.2,-0.1 -1.1,-0.9 -1.2,-0.7 -0.2,0.3 -0.5,0.5 -0.9,0.7 -0.9,0.4 -2,0.3 -3,0.3 l -0.2,-0.1 c -0.1,-0.4 -0.3,-1.2 -0.8,-0.7 -0.1,0.1 -0.2,0.2 -0.4,0.3 l -0.5,0.4 c -0.7,0.3 -2.7,-0.1 -3,-0.6 -0.2,-0.3 -0.3,-0.7 -0.4,-1.1 -0.2,-1 -0.1,-2 -0.1,-3 -0.1,-2.5 -0.3,-4.9 -0.5,-7.4 -0.1,-1.3 -0.2,-2.6 -0.1,-3.8 0.1,-0.8 0.1,-2 0.5,-2.7 0.3,-0.6 0.1,-1.1 -0.3,-1.5 -0.1,-0.1 -0.2,-0.4 -0.2,-0.5 -0.1,-0.9 0.1,-1.9 0.1,-2.8 0,-0.7 0.1,-1.4 0.2,-2.1 0,-0.5 -0.1,-1 -0.2,-1.5 0,-0.2 0,-0.5 0.1,-0.8 0.3,-0.4 0.2,-0.7 0.1,-1.2000007 -0.3,-1 0,-2.1 0.1,-3.1 0.1,-1.2 0.1,-2.4 0,-3.6 -0.1,-1.3 -0.4,-2.60000002 -0.3,-3.9 0.1,-1.2 0.2,-2.3 0.2,-3.5 0.4,-2.2 0.4,-4.4 0.4,-6.4999993 l 0,0.5 c 0,0 -0.2,-2.8 1,-3.4 1.7,-1 3.9,-0.8 5.8,-0.9 2.5,-0.1 5,0.1 7.5,0.1 1.4,0 2.9,0 4.3,-0.3 1,-0.2 2,-0.3 3,-0.3 l 3.6,0.5 c 1.2,0.1 2.4,0.1 3.6,0 2.6,-0.2 5.3,-0.1 7.9,0 l 4.1,0.2 c 0.6,0 1.4,0.2 2,0 l 1.2,-0.4 c 0.9,-0.2 1.5,0 2.3,0.2 l 3.099996,0.7 c 0.3,-0.1 0.7,-0.1 1,0.2 0.6,0.5 0,1.2 0.4,1.8 0.5,0.7 1,1.2 1.1,2.0999997 0.1,0.9999996 0.2,1.9999996 -0.2,2.9999996 -0.2,0.6 -0.5,1.3 -0.2,2 0.2,0.4 0.4,0.8 0.5,1.3 0.2,0.9 0.2,1.9 0.2,2.89999998 l -0.2,3.30000002 c -0.1,0.7 -0.4,1.4 -0.4,2.1 0,0.6 0.2,1.1 0.3,1.6 0.4,1.8 -1.2,2.9 -1.5,4.6000007 -0.2,0.9 0.9,0.5 1.3,1 0.3,0.3 0.1,0.9 0.1,1.3 l 0.1,2.9 c -0.1,1.2 -0.4,2.2 -0.1,3.4 0.2,0.7 0.3,1.4 0.1,2 -0.2,0.7 -0.9,2.4 0.1,2.7 l 0.1,0.1 c 0,0.3 -0.1,0.5 -0.2,0.8 -0.5,1 0.2,0.8 0.4,1.5 0.1,0.6 -0.2,0.9 -0.3,1.4 -0.2,0.9 0.3,1.7 0.3,2.6 0,0.9 -0.5,1.3 -0.3,2.1 0.1,0 0.1,0 0.1,0.1 0.1,0.4 0.1,0.9 0,1.3 -0.2,0.6 -0.5,0.7 0.2,1.1 l -0.2,0.3 z M 83.997308,6.4932629 c -0.4,-2.6 -0.7,-5.3 -1.5,-7.7 -0.4,-1 -0.6,-2.2 -1.8,-2.4 -1.6,-0.3 -1,1.1 -0.8,2.3 0.3,1.99999998 0.4,3.9 0.9,5.8 0.3,1.3 1,2.9 -0.7,1.9 -3,-1.7 -4,-5.70000002 -5.2,-8.6 -0.5,-1.3 -2.1,-4.5 -3.1,-5.3 -0.5,-0.4 -3,-0.9 -3.5,-0.6 -1,0.7 2.1,5.7 2.6,6.5 1,1.99999998 2,3.9 3.3,5.7 0.9,1.3 2.3,2.4 0.3,3.2 -2.1,0.8 -3.1,-0.4 -4.5,-1.4 -1.1,-0.9 -2.6,-1 -4,-1.1 -3.9,-0.5 -7.6,0 -10.7,2.5 -1.5,1.2 -2.4,3.0000001 -3.2,4.7000001 -0.2,0.4 -1.5,4.3 -1.3,4.4 -0.8,-0.1 -0.3,-2 -1.3,-0.9 -0.9,1 0.2,3.7 0.7,4.6 0.9,2.1 1.8,4.2 2.6,6.4 0.7,2.2 0.9,2.1 2.9,2.3 2.6,0.2 5.1,-0.6 7.6,-0.9 0,0 -4.5,-2.8 4.4,0.3 2,0.7 4.1,0.5 6.1,0.6 1.5,-0.3 1.5,-2.9 2.3,-4.1 0.3,-0.4 1.7,-2.7 2.2,-2.9 0.6,-0.2 1.6,0.4 2.2,0.5 3.7,0.6 4.9,-2.5 4.3,-5.4 -0.5,-2.6 -0.2,-5.5 0.2,-7.5000001 -0.1,-0.6 -0.9,-2.2 -1,-2.9 z m -17.1,14.9000001 0,-0.3 0,0.3 z m 0.6,-1 c 0.1,0.7 0.1,1.4 0.1,2.1 l 0,1.1 c 0,0.2 0,0.3 -0.1,0.4 0,0.2 -0.1,0.2 -0.2,0.3 -0.4,0.2 -1,0.3 -1.5,0.2 -0.2,0 -0.5,-0.1 -0.7,-0.2 l -0.3,-0.3 c -0.1,-0.1 -0.2,-0.1 -0.2,-0.2 -0.1,-0.1 -0.1,-0.3 -0.2,-0.5 0,-0.1 -0.1,-0.2 -0.1,-0.4 -0.1,-0.3 -0.2,-0.6 -0.2,-0.8 -0.1,-0.6 -0.2,-1.2 -0.2,-1.8 0,-0.8 0,-1.9 0.5,-2.6 0.2,-0.4 0.6,-0.5 1.1,-0.7 0.4,-0.1 1.1,-0.2 1.4,0.1 -0.1,-0.1 0,-0.3 0,-0.4 0,-0.2 0,-0.4 0.1,-0.6 0.1,-0.6 0,-1.2 0,-1.7 l 0,-3.7 c 0,-0.1 -0.1,-0.2 0,-0.3 0.1,-0.1 0.4,-0.4000001 0.6,-0.4000001 0.2,0 0.2,0.6000001 0.3,0.7000001 0.1,0.6 0.1,1.2 0,1.8 -0.1,1.3 -0.2,2.7 -0.2,4 0,0.2 0,0.5 0.1,0.8 0,0.3 0,0.7 0.1,1 l 0,0.9 c -0.5,0.6 -0.5,0.9 -0.4,1.2 z m -0.6,0.7 0,-1.9 c 0,-0.2 0,-0.5 -0.1,-0.7 0,-0.2 -0.2,-0.3 -0.2,-0.3 l -0.2,-0.1 c -0.6,-0.2 -1.3,-0.1 -1.6,0.5 -0.2,0.4 -0.2,0.8 -0.2,1.3 l 0.1,1.5 c 0.2,1.1 0.7,2.8 2.1,2.6 0,-0.8 0.1,-1.6 0.1,-2.5 l 0,-0.4 z"
     id="path4"
     inkscape:connector-curvature="0"
     style="fill:#c1272d;fill-opacity:1" />
</svg>
