<?xml version="1.0" encoding="UTF-8" standalone="no"?>
<svg
   xmlns:dc="http://purl.org/dc/elements/1.1/"
   xmlns:cc="http://creativecommons.org/ns#"
   xmlns:rdf="http://www.w3.org/1999/02/22-rdf-syntax-ns#"
   xmlns:svg="http://www.w3.org/2000/svg"
   xmlns="http://www.w3.org/2000/svg"
   xmlns:sodipodi="http://sodipodi.sourceforge.net/DTD/sodipodi-0.dtd"
   xmlns:inkscape="http://www.inkscape.org/namespaces/inkscape"
   viewBox="0 0 200 200"
   id="svg2"
   version="1.1"
   inkscape:version="0.91 r13725"
   sodipodi:docname="overlay.svg"
   width="200"
   height="200"
   style="fill:none;stroke:#ffffff;stroke-linejoin:round">
  <metadata
     id="metadata12">
    <rdf:RDF>
      <cc:Work
         rdf:about="">
        <dc:format>image/svg+xml</dc:format>
        <dc:type
           rdf:resource="http://purl.org/dc/dcmitype/StillImage" />
        <dc:title></dc:title>
      </cc:Work>
    </rdf:RDF>
  </metadata>
  <defs
     id="defs10" />
  <sodipodi:namedview
     pagecolor="#474747"
     bordercolor="#666666"
     borderopacity="1"
     objecttolerance="10"
     gridtolerance="10"
     guidetolerance="10"
     inkscape:pageopacity="0"
     inkscape:pageshadow="2"
     inkscape:window-width="1920"
     inkscape:window-height="1012"
     id="namedview8"
     showgrid="false"
     inkscape:zoom="3.6203868"
     inkscape:cx="125.10825"
     inkscape:cy="102.97375"
     inkscape:window-x="-8"
     inkscape:window-y="-8"
     inkscape:window-maximized="1"
     inkscape:current-layer="svg2"
     showguides="true"
     inkscape:guide-bbox="true" />
  <path
     d="m 26.222804,153.8583 a 10.014462,10.014462 0 1 0 0,15.34835 m 51.392361,-17.004 0,18.68203 6.219882,0 a 9.3410151,9.3410151 0 0 0 0,-18.68203 z m 40.093635,-0.0223 -12.97674,0 0,18.70441 12.97674,0 m -12.97674,-9.3522 8.81523,0 m 15.16936,10.91835 0,-20.27056 6.75686,0 a 4.676105,4.676105 0 0 1 0,9.35221 l -6.75686,0 m 36.15588,-9.35221 -12.97674,0 0,18.70441 12.97674,0 m -12.97674,-9.3522 8.81524,0 m 30.07023,-10.87362 0,20.22582 -15.61683,-18.65966 0,20.22581"
     id="path4"
     inkscape:connector-curvature="0"
     style="stroke-width:3.13231611" />
  <path
     d="m 65.757108,155.37117 -15.169359,-10.13527 -15.16936,10.13527 0,10.15766 15.16936,10.1129 15.169359,-10.1129 z m -15.169359,-9.97866 0,9.97866 m 0,10.15766 0,10.1129 m -15.16936,-20.27056 0,10.15766 15.16936,-10.15766 15.169359,10.15766 0,-10.15766 -15.169359,10.15766 z"
     id="path6"
     inkscape:connector-curvature="0"
     style="stroke-width:2.863832" />
  <flowRoot
     xml:space="preserve"
     id="flowRoot4140"
     style="fill:black;stroke:none;stroke-opacity:1;stroke-width:1px;stroke-linejoin:miter;stroke-linecap:butt;fill-opacity:1;font-family:sans-serif;font-style:normal;font-weight:normal;font-size:40px;line-height:125%;letter-spacing:0px;word-spacing:0px"><flowRegion
       id="flowRegion4142"><rect
         id="rect4144"
         width="166.28058"
         height="44.194176"
         x="19.887379"
         y="62.998062" /></flowRegion><flowPara
       id="flowPara4146" /></flowRoot>  <path
     inkscape:connector-curvature="0"
     style="fill:#ffffff;fill-opacity:1;stroke-width:0.12944591"
     d="m 108.67109,63.778804 28.93116,0 0,28.931169 -8.34926,0 0,-14.756821 -40.581282,40.581278 -5.825065,-5.82509 40.581277,-40.581283 -14.75683,0 0,-8.349253 z m 20.5819,66.211586 0,-28.93117 8.34926,0 0,28.93117 c 0,4.46589 -3.88338,8.34926 -8.34926,8.34926 l -57.862309,0 c -4.660054,0 -8.349261,-3.88337 -8.349261,-8.34926 l 0,-57.862333 c 0,-4.465881 3.689207,-8.349253 8.349261,-8.349253 l 28.931149,0 0,8.349253 -28.931149,0 0,57.862333 57.862309,0 z"
     id="path5" />
</svg>
