<?xml version="1.0" encoding="UTF-8" standalone="no"?>
<svg
   xmlns:dc="http://purl.org/dc/elements/1.1/"
   xmlns:cc="http://creativecommons.org/ns#"
   xmlns:rdf="http://www.w3.org/1999/02/22-rdf-syntax-ns#"
   xmlns:svg="http://www.w3.org/2000/svg"
   xmlns="http://www.w3.org/2000/svg"
   xmlns:sodipodi="http://sodipodi.sourceforge.net/DTD/sodipodi-0.dtd"
   xmlns:inkscape="http://www.inkscape.org/namespaces/inkscape"
   viewBox="39 -18.3 80 79.999997"
   enable-background="new 39 -18.3 121.7 81.3"
   id="svg2"
   version="1.1"
   inkscape:version="0.91 r13725"
   sodipodi:docname="sass-logo.svg"
   width="80"
   height="80">
  <metadata
     id="metadata10">
    <rdf:RDF>
      <cc:Work
         rdf:about="">
        <dc:format>image/svg+xml</dc:format>
        <dc:type
           rdf:resource="http://purl.org/dc/dcmitype/StillImage" />
        <dc:title></dc:title>
      </cc:Work>
    </rdf:RDF>
  </metadata>
  <defs
     id="defs8" />
  <sodipodi:namedview
     pagecolor="#ffffff"
     bordercolor="#666666"
     borderopacity="1"
     objecttolerance="10"
     gridtolerance="10"
     guidetolerance="10"
     inkscape:pageopacity="0"
     inkscape:pageshadow="2"
     inkscape:window-width="954"
     inkscape:window-height="480"
     id="namedview6"
     showgrid="false"
     inkscape:zoom="2.4404273"
     inkscape:cx="-1.506234e-006"
     inkscape:cy="40.650002"
     inkscape:window-x="195"
     inkscape:window-y="228"
     inkscape:window-maximized="0"
     inkscape:current-layer="svg2" />
  <path
     d="m 105.82154,24.899997 c -2.5,0 -4.69999,0.6 -6.599997,1.5 -0.69999,-1.3 -1.399994,-2.5 -1.499994,-3.4 -0.1,-1 -0.3,-1.6 -0.1,-2.9 0.2,-1.2 0.900004,-3 0.900004,-3.1 0,-0.1 -0.200004,-0.8 -1.600004,-0.8 -1.5,0 -2.7,0.3 -2.9,0.7 -0.1,0.4 -0.4,1.3 -0.6,2.2 -0.3,1.3 -2.9,6.1 -4.4,8.6 -0.5,-1 -0.9,-1.8 -1,-2.5 -0.1,-1 -0.3,-1.6 -0.1,-2.9 0.2,-1.2 0.9,-3 0.9,-3.1 0,-0.1 -0.2,-0.8 -1.6,-0.8 -1.5,0 -2.7,0.3 -2.9,0.7 -0.1,0.4 -0.3,1.3 -0.6,2.2 -0.3,0.9 -3.9,8.8 -4.8,10.8 -0.5,1 -0.9,1.9 -1.2,2.5 l 0,0.1 c -0.2,0.5 -0.4,0.8 -0.4,0.8 -0.2,0.4 -0.4,0.7 -0.5,0.7 -0.1,0 -0.2,-1 0,-2.3 0.5,-2.7 1.8,-7 1.8,-7.2 0,-0.1 0.2,-0.8 -0.8,-1.2 -1,-0.4 -1.4,0.3 -1.5,0.3 l -0.2,0.2 c 0,0 1.2,-4.8 -2.2,-4.8 -2.1,0 -5,2.3 -6.4,4.4 -0.9,0.5 -2.8,1.5 -4.9,2.7 l -2.4,1.3 -0.2,-0.2 c -4.1,-4.3 -11.6,-7.4 -11.3,-13.2 0.1,-2.1 0.9,-7.7000001 14.4,-14.5000001 11.1,-5.4999999 20,-3.9999999 21.6,-0.6 2.2,4.8000001 -4.8,13.8000001 -16.3,15.1000001 -4.4,0.5 -6.7,-1.2 -7.3,-1.8 -0.6,-0.7 -0.7,-0.7 -0.9,-0.6 -0.4,0.2 -0.1,0.8 0,1.1 0.3,0.9 1.8,2.5 4.2,3.3 2.1,0.7 7.3,1.1 13.5,-1.3 7,-2.7 12.5,-10.2000001 10.9,-16.50000011 -1.6,-6.39999989 -12.3,-8.49999989 -22.3,-4.89999989 -6,2.1 -12.5,5.49999989 -17.1,9.7999999 -5.5,5.2000001 -6.4,9.7000001 -6.1,11.6000001 1.3,6.7 10.5,11 14.2,14.3 -0.2,0.1 -0.4,0.2 -0.5,0.3 -1.9,0.9 -8.9,4.6 -10.6,8.5 -2,4.4 0.3,7.6 1.8,8 4.7,1.3 9.6,-1.1 12.2,-5 2.6,-3.9 2.3,-9 1.1,-11.3 l 0,-0.1 c 0.5,-0.3 1,-0.6 1.4,-0.9 0.9,-0.6 1.9,-1.1 2.7,-1.5 -0.4,1.2 -0.8,2.7 -0.9,4.8 -0.2,2.5 0.8,5.7 2.2,7 0.6,0.6 1.3,0.6 1.8,0.6 1.6,0 2.3,-1.3 3.1,-2.8 1,-1.9 1.8,-4.1 1.8,-4.1 0,0 -1.1,5.9 1.8,5.9 1.1,0 2.1,-1.4 2.6,-2.1 l 0.1,-0.1 c 0.1,-0.2 0.2,-0.3 0.2,-0.3 0.4,-0.7 1.4,-2.4 2.8,-5.2 1.8,-3.6 3.6,-8.1 3.6,-8.1 0,0 0.2,1.1 0.7,2.9 0.3,1.1 1,2.3 1.5,3.4 -0.4,0.6 -0.7,0.9 -0.7,0.9 -0.3,0.5 -0.7,0.9 -1.1,1.4 -1.5,1.7 -3.2,3.7 -3.4,4.3 -0.3,0.7 -0.2,1.2 0.3,1.6 0.4,0.3 1.1,0.3 1.8,0.3 1.3,-0.1 2.2,-0.4 2.7,-0.6 0.7,-0.2 1.5,-0.6 2.3,-1.2 1.4,-1 2.3,-2.5 2.2,-4.5 0,-1.1 -0.4,-2.2 -0.8,-3.2 l 0.4,-0.6 c 2.2,-3.3 4,-6.9 4,-6.9 0,0 0.2,1.1 0.7,2.9 0.3,0.9 0.8,1.9 1.3,2.9 -2.1,1.7 -3.4,3.7 -3.9,5 -0.8,2.4 -0.2,3.5 1.1,3.8 0.6,0.1 1.3,-0.1 1.9,-0.4 0.7,-0.2 1.6,-0.7 2.5,-1.3 1.399994,-1 2.800001,-2.5 2.700001,-4.5 0,-0.9 -0.30001,-1.8 -0.60001,-2.7 1.8,-0.7 4.1,-1.2 7.1,-0.8 6.3,0.7 7.6,4.7 7.3,6.3 -0.2,1.7 -1.6,2.6 -2,2.8 -0.4,0.3 -0.6,0.4 -0.5,0.6 0.1,0.3 0.3,0.3 0.6,0.2 0.5,-0.1 3.3,-1.3 3.4,-4.4 -0.1,-3.8 -3.8,-8.1 -10.4,-8.1 z m -48.699991,16.5 c -2.1,2.3 -5,3.1 -6.3,2.4 -1.4,-0.8 -0.8,-4.2 1.8,-6.6 1.6,-1.5 3.6,-2.8 4.9,-3.7 0.3,-0.2 0.8,-0.5 1.3,-0.8 l 0.1,-0.1 0.3,-0.2 c 1,3.5 0.1,6.6 -2.1,9 z m 15.2,-10.4 c -0.7,1.8 -2.3,6.3 -3.2,6.1 -0.8,-0.2 -1.3,-3.7 -0.2,-7.1 0.6,-1.7 1.8,-3.8 2.5,-4.6 1.1,-1.3 2.4,-1.7 2.7,-1.2 0.5,0.7 -1.3,5.7 -1.8,6.8 z m 12.6,6 c -0.3,0.2 -0.5,0.3 -0.7,0.2 -0.1,-0.1 0.1,-0.3 0.1,-0.3 0,0 1.6,-1.7 2.2,-2.5 0.4,-0.4 0.8,-1 1.2,-1.6 l 0,0.2 c 0.1,2.1 -1.9,3.5 -2.8,4 z m 9.8,-2.2 c -0.2,-0.2 -0.2,-0.7 0.6,-2.3 0.3,-0.6 1,-1.7 2.2,-2.8 0.1,0.4 0.2,0.8 0.2,1.2 -0.1,2.6 -1.9,3.5 -3,3.9 z"
     id="path4"
     inkscape:connector-curvature="0"
     style="fill:#cf649a;fill-opacity:1" />
</svg>
