<?xml version="1.0" encoding="UTF-8" standalone="no"?>
<!DOCTYPE svg PUBLIC "-//W3C//DTD SVG 1.1//EN" "http://www.w3.org/Graphics/SVG/1.1/DTD/svg11.dtd">
<svg version="1.1" xmlns="http://www.w3.org/2000/svg" xmlns:xlink="http://www.w3.org/1999/xlink" preserveAspectRatio="xMidYMid meet" viewBox="0 0 200 200"><defs><path d="M184.58 25C186.19 25 187.5 26.31 187.5 27.92C187.5 36.08 187.5 57.67 187.5 65.83C187.5 67.44 186.19 68.75 184.58 68.75C150.17 68.75 49.83 68.75 15.42 68.75C13.81 68.75 12.5 67.44 12.5 65.83C12.5 57.67 12.5 36.08 12.5 27.92C12.5 26.31 13.81 25 15.42 25C49.83 25 150.17 25 184.58 25Z" id="RgK9X5eQ2U"></path><path d="M176 44.35C176 51.02 170.58 56.44 163.9 56.44C157.23 56.44 151.81 51.02 151.81 44.35C151.81 37.67 157.23 32.25 163.9 32.25C170.58 32.25 176 37.67 176 44.35Z" id="calo2oL6Lp"></path><path d="M152.79 50.9C153.21 50.47 153.91 50.47 154.33 50.9C155.09 51.66 156.59 53.16 157.35 53.92C157.78 54.34 157.78 55.04 157.35 55.46C155.65 57.16 151.33 61.48 149.63 63.18C149.21 63.61 148.51 63.61 148.09 63.18C147.33 62.42 145.83 60.92 145.07 60.16C144.64 59.74 144.64 59.04 145.07 58.62C146.77 56.92 151.09 52.6 152.79 50.9Z" id="zr2xqSOmfQ"></path><path d="M21.88 59.38L37.5 59.38L37.5 62.5L21.88 62.5L21.88 59.38Z" id="uyswE7bLCL"></path><path d="M178.35 81.25C179.95 81.25 181.25 82.55 181.25 84.15C181.25 91.7 181.25 111.43 181.25 118.97C181.25 120.58 179.95 121.87 178.35 121.87C146.43 121.87 53.57 121.87 21.65 121.87C20.05 121.87 18.75 120.58 18.75 118.97C18.75 111.43 18.75 91.7 18.75 84.15C18.75 82.55 20.05 81.25 21.65 81.25C53.57 81.25 146.43 81.25 178.35 81.25Z" id="NqMD17Oc0A"></path><path d="M178.35 128.13C179.95 128.13 181.25 129.42 181.25 131.03C181.25 138.57 181.25 158.3 181.25 165.85C181.25 167.45 179.95 168.75 178.35 168.75C146.43 168.75 53.57 168.75 21.65 168.75C20.05 168.75 18.75 167.45 18.75 165.85C18.75 158.3 18.75 138.57 18.75 131.03C18.75 129.42 20.05 128.13 21.65 128.13C53.57 128.13 146.43 128.13 178.35 128.13Z" id="FA5DkMHBc5"></path><path d="M178.35 175C179.95 175 181.25 176.3 181.25 177.9C181.25 185.45 181.25 205.18 181.25 212.72C181.25 214.33 179.95 215.63 178.35 215.63C146.43 215.63 53.57 215.63 21.65 215.63C20.05 215.63 18.75 214.33 18.75 212.72C18.75 205.18 18.75 185.45 18.75 177.9C18.75 176.3 20.05 175 21.65 175C53.57 175 146.43 175 178.35 175Z" id="v70CmIoKAJ"></path><path d="M28.13 87.5L53.13 87.5L53.13 96.88L28.13 96.88L28.13 87.5Z" id="flNl8CObqE"></path><path d="M56.25 87.5L65.63 87.5L65.63 96.88L56.25 96.88L56.25 87.5Z" id="VCKjrCL7Qh"></path><path d="M28.13 134.38L68.75 134.38L68.75 143.75L28.13 143.75L28.13 134.38Z" id="t8HHCW96oX"></path><path d="M28.13 181.25L37.5 181.25L37.5 190.63L28.13 190.63L28.13 181.25Z" id="YtQd0vzYYm"></path><path d="M40.63 181.25L59.38 181.25L59.38 190.63L40.63 190.63L40.63 181.25Z" id="qlJNDc3vdw"></path><path d="M31.25 100L165.63 100L165.63 115.63L31.25 115.63L31.25 100Z" id="r5CK8wDZMz"></path><path d="M125 109.38L168.75 109.38L168.75 118.75L125 118.75L125 109.38Z" id="O4RVyyE7On"></path><path d="M31.25 146.88L165.63 146.88L165.63 162.5L31.25 162.5L31.25 146.88Z" id="TrkHOhhOYe"></path><path d="M81.25 156.25L168.75 156.25L168.75 165.63L81.25 165.63L81.25 156.25Z" id="Plc5BpzaJ0"></path><path d="M31.25 193.75L165.63 193.75L165.63 209.38L31.25 209.38L31.25 193.75Z" id="TBOcCrd79X"></path><path d="M121.88 203.13L165.63 203.13L165.63 212.5L121.88 212.5L121.88 203.13Z" id="M5IqwGBHgL"></path></defs><g visibility="inherit"><g visibility="inherit"><g><use xlink:href="#RgK9X5eQ2U" opacity="1" fill="#d6d6d6" fill-opacity="1"></use></g><g><g><use xlink:href="#calo2oL6Lp" opacity="1" fill="#5aca4f" fill-opacity="0"></use><g><use xlink:href="#calo2oL6Lp" opacity="1" fill-opacity="0" stroke="#3d3d3d" stroke-width="3" stroke-opacity="1"></use></g></g><g><use xlink:href="#zr2xqSOmfQ" opacity="1" fill="#3d3d3d" fill-opacity="1"></use></g></g><g><use xlink:href="#uyswE7bLCL" opacity="1" fill="#3d3d3d" fill-opacity="1"></use></g><g><use xlink:href="#NqMD17Oc0A" opacity="1" fill="#d6d6d6" fill-opacity="1"></use></g><g><use xlink:href="#FA5DkMHBc5" opacity="1" fill="#d6d6d6" fill-opacity="1"></use></g><g><use xlink:href="#v70CmIoKAJ" opacity="1" fill="#d6d6d6" fill-opacity="1"></use></g><g><use xlink:href="#flNl8CObqE" opacity="1" fill="#3d3d3d" fill-opacity="1"></use></g><g><use xlink:href="#VCKjrCL7Qh" opacity="1" fill="#3d3d3d" fill-opacity="1"></use></g><g><use xlink:href="#t8HHCW96oX" opacity="1" fill="#3d3d3d" fill-opacity="1"></use></g><g><use xlink:href="#YtQd0vzYYm" opacity="1" fill="#3d3d3d" fill-opacity="1"></use></g><g><use xlink:href="#qlJNDc3vdw" opacity="1" fill="#3d3d3d" fill-opacity="1"></use></g><g><use xlink:href="#r5CK8wDZMz" opacity="1" fill="#717171" fill-opacity="1"></use></g><g><use xlink:href="#O4RVyyE7On" opacity="1" fill="#d6d6d6" fill-opacity="1"></use></g><g><use xlink:href="#TrkHOhhOYe" opacity="1" fill="#717171" fill-opacity="1"></use></g><g><use xlink:href="#Plc5BpzaJ0" opacity="1" fill="#d6d6d6" fill-opacity="1"></use></g><g><use xlink:href="#TBOcCrd79X" opacity="1" fill="#717171" fill-opacity="1"></use></g><g><use xlink:href="#M5IqwGBHgL" opacity="1" fill="#d6d6d6" fill-opacity="1"></use></g></g></g></svg>