<?xml version="1.0" encoding="UTF-8" standalone="no"?>
<svg
   xmlns:dc="http://purl.org/dc/elements/1.1/"
   xmlns:cc="http://creativecommons.org/ns#"
   xmlns:rdf="http://www.w3.org/1999/02/22-rdf-syntax-ns#"
   xmlns:svg="http://www.w3.org/2000/svg"
   xmlns="http://www.w3.org/2000/svg"
   xmlns:xlink="http://www.w3.org/1999/xlink"
   xmlns:sodipodi="http://sodipodi.sourceforge.net/DTD/sodipodi-0.dtd"
   xmlns:inkscape="http://www.inkscape.org/namespaces/inkscape"
   version="1.1"
   preserveAspectRatio="xMidYMid meet"
   viewBox="0 0 60 60"
   id="svg2"
   inkscape:version="0.91 r13725"
   sodipodi:docname="Simon2.svg">
  <metadata
     id="metadata108">
    <rdf:RDF>
      <cc:Work
         rdf:about="">
        <dc:format>image/svg+xml</dc:format>
        <dc:type
           rdf:resource="http://purl.org/dc/dcmitype/StillImage" />
        <dc:title></dc:title>
      </cc:Work>
    </rdf:RDF>
  </metadata>
  <sodipodi:namedview
     pagecolor="#ffffff"
     bordercolor="#666666"
     borderopacity="1"
     objecttolerance="10"
     gridtolerance="10"
     guidetolerance="10"
     inkscape:pageopacity="0"
     inkscape:pageshadow="2"
     inkscape:window-width="700"
     inkscape:window-height="480"
     id="namedview106"
     showgrid="false"
     inkscape:zoom="3.9333333"
     inkscape:cx="31.144068"
     inkscape:cy="30"
     inkscape:window-x="361"
     inkscape:window-y="77"
     inkscape:window-maximized="0"
     inkscape:current-layer="svg2" />
  <defs
     id="defs4">
    <path
       d="M43.6 30C43.6 37.4 37.6 43.4 30.2 43.4C22.8 43.4 16.8 37.4 16.8 30C16.8 22.6 22.8 16.6 30.2 16.6C37.6 16.6 43.6 22.6 43.6 30Z"
       id="Y6qSKdGsGd" />
    <path
       d="M16.8 27.8L22 19.6L29.8 15.2L29.8 1L16 5.6L6.6 15.2L4 23.6L3.4 29.8L15.8 30L16.8 27.8Z"
       id="JvRh4067id" />
    <path
       d="M28 44.3L19.8 39.1L15.4 31.3L1.2 31.3L5.8 45.1L15.4 54.5L23.8 57.1L30 57.7L30.2 45.3L28 44.3Z"
       id="UrmDnZZtwY" />
    <path
       d="M32.2 15.89L40.4 21.09L44.8 28.89L59 28.89L54.4 15.09L44.8 5.69L36.4 3.09L30.2 2.49L30 14.89L32.2 15.89Z"
       id="MhiQ42oZJQ" />
    <path
       d=""
       id="ou1BIknQjI" />
    <path
       d="M43.2 32.2L38 40.4L30.2 44.8L30.2 59L44 54.4L53.4 44.8L56 36.4L56.6 30.2L44.2 30L43.2 32.2Z"
       id="MuQzERe5LI" />
    <path
       d="M57.93 30C57.93 45.52 45.32 58.12 29.8 58.12C14.28 58.12 1.68 45.52 1.68 30C1.68 14.48 14.28 1.88 29.8 1.88C45.32 1.88 57.93 14.48 57.93 30Z"
       id="Qpne1AMBUW" />
    <path
       d="M1.88 28.13L16.6 28.13L16.6 31.88L1.88 31.88L1.88 28.13Z"
       id="SbEjaczpTl" />
    <path
       d="M28.13 17.52L28.13 1.88L31.88 1.88L31.88 17.52L28.13 17.52Z"
       id="LxrKeCkqvX" />
    <path
       d="M43.4 30C43.4 37.4 37.4 43.4 30 43.4C22.6 43.4 16.6 37.4 16.6 30C16.6 22.6 22.6 16.6 30 16.6C37.4 16.6 43.4 22.6 43.4 30Z"
       id="jm1mwSN68g" />
    <path
       d="M43.4 28.13L58.12 28.13L58.12 31.88L43.4 31.88L43.4 28.13Z"
       id="rvgwlxKGnZ" />
    <path
       d="M28.13 58.12L28.13 42.48L31.88 42.48L31.88 58.12L28.13 58.12Z"
       id="PoOa4fXuFm" />
    <path
       d="M23.7 24.89L36.7 24.89L36.7 30L23.7 30L23.7 24.89Z"
       id="AsocoSlVpi" />
    <path
       d="M32.01 31.3C32.89 31.3 33.6 32.01 33.6 32.89C33.6 33.21 33.6 32.58 33.6 32.89C33.6 33.78 32.89 34.49 32.01 34.49C30.96 34.49 29.44 34.49 28.39 34.49C27.51 34.49 26.8 33.78 26.8 32.89C26.8 32.58 26.8 33.21 26.8 32.89C26.8 32.01 27.51 31.3 28.39 31.3C29.44 31.3 30.96 31.3 32.01 31.3Z"
       id="imQDjEtc0A" />
  </defs>
  <g
     visibility="inherit"
     id="g20"
     transform="matrix(0.82987552,0,0,0.82987552,5.2655602,5.1078837)"
     style="visibility:inherit">
    <g
       visibility="inherit"
       id="g22"
       style="visibility:inherit">
      <g
         id="g24">
        <use
           xlink:href="#Y6qSKdGsGd"
           id="use26"
           style="opacity:1;fill:#d6d6d6;fill-opacity:1"
           x="0"
           y="0"
           width="100%"
           height="100%" />
      </g>
      <g
         id="g28">
        <use
           xlink:href="#JvRh4067id"
           id="use30"
           style="opacity:1;fill:#5aca4f;fill-opacity:1"
           x="0"
           y="0"
           width="100%"
           height="100%" />
        <g
           id="g32">
          <use
             xlink:href="#JvRh4067id"
             id="use34"
             style="opacity:1;fill-opacity:0;stroke:#4fca82;stroke-width:0;stroke-opacity:1"
             x="0"
             y="0"
             width="100%"
             height="100%" />
        </g>
      </g>
      <g
         id="g36">
        <use
           xlink:href="#UrmDnZZtwY"
           id="use38"
           style="opacity:1;fill:#4f80ca;fill-opacity:1"
           x="0"
           y="0"
           width="100%"
           height="100%" />
        <g
           id="g40">
          <use
             xlink:href="#UrmDnZZtwY"
             id="use42"
             style="opacity:1;fill-opacity:0;stroke:#4fca82;stroke-width:0;stroke-opacity:1"
             x="0"
             y="0"
             width="100%"
             height="100%" />
        </g>
      </g>
      <g
         id="g44">
        <use
           xlink:href="#MhiQ42oZJQ"
           id="use46"
           style="opacity:1;fill:#ca4f4f;fill-opacity:1"
           x="0"
           y="0"
           width="100%"
           height="100%" />
        <g
           id="g48">
          <use
             xlink:href="#MhiQ42oZJQ"
             id="use50"
             style="opacity:1;fill-opacity:0;stroke:#4fca82;stroke-width:0;stroke-opacity:1"
             x="0"
             y="0"
             width="100%"
             height="100%" />
        </g>
      </g>
      <g
         id="g52">
        <g
           id="g54">
          <use
             xlink:href="#ou1BIknQjI"
             id="use56"
             style="opacity:1;fill-opacity:0;stroke:#000000;stroke-width:1;stroke-opacity:1"
             x="0"
             y="0"
             width="100%"
             height="100%" />
        </g>
      </g>
      <g
         id="g58">
        <use
           xlink:href="#MuQzERe5LI"
           id="use60"
           style="opacity:1;fill:#f3e554;fill-opacity:1"
           x="0"
           y="0"
           width="100%"
           height="100%" />
        <g
           id="g62">
          <use
             xlink:href="#MuQzERe5LI"
             id="use64"
             style="opacity:1;fill-opacity:0;stroke:#4fca82;stroke-width:0;stroke-opacity:1"
             x="0"
             y="0"
             width="100%"
             height="100%" />
        </g>
      </g>
      <g
         id="g66">
        <use
           xlink:href="#Qpne1AMBUW"
           id="use68"
           style="opacity:1;fill:#d5d5d5;fill-opacity:0"
           x="0"
           y="0"
           width="100%"
           height="100%" />
        <g
           id="g70">
          <use
             xlink:href="#Qpne1AMBUW"
             id="use72"
             style="opacity:1;fill-opacity:0;stroke:#575757;stroke-width:4;stroke-opacity:1"
             x="0"
             y="0"
             width="100%"
             height="100%" />
        </g>
      </g>
      <g
         id="g74">
        <use
           xlink:href="#SbEjaczpTl"
           id="use76"
           style="opacity:1;fill:#575757;fill-opacity:1"
           x="0"
           y="0"
           width="100%"
           height="100%" />
      </g>
      <g
         id="g78">
        <use
           xlink:href="#LxrKeCkqvX"
           id="use80"
           style="opacity:1;fill:#575757;fill-opacity:1"
           x="0"
           y="0"
           width="100%"
           height="100%" />
      </g>
      <g
         id="g82">
        <use
           xlink:href="#jm1mwSN68g"
           id="use84"
           style="opacity:1;fill:#4fca82;fill-opacity:0"
           x="0"
           y="0"
           width="100%"
           height="100%" />
        <g
           id="g86">
          <use
             xlink:href="#jm1mwSN68g"
             id="use88"
             style="opacity:1;fill-opacity:0;stroke:#575757;stroke-width:4;stroke-opacity:1"
             x="0"
             y="0"
             width="100%"
             height="100%" />
        </g>
      </g>
      <g
         id="g90">
        <use
           xlink:href="#rvgwlxKGnZ"
           id="use92"
           style="opacity:1;fill:#575757;fill-opacity:1"
           x="0"
           y="0"
           width="100%"
           height="100%" />
      </g>
      <g
         id="g94">
        <use
           xlink:href="#PoOa4fXuFm"
           id="use96"
           style="opacity:1;fill:#575757;fill-opacity:1"
           x="0"
           y="0"
           width="100%"
           height="100%" />
      </g>
      <g
         id="g98">
        <use
           xlink:href="#AsocoSlVpi"
           id="use100"
           style="opacity:1;fill:#494949;fill-opacity:1"
           x="0"
           y="0"
           width="100%"
           height="100%" />
      </g>
      <g
         id="g102">
        <use
           xlink:href="#imQDjEtc0A"
           id="use104"
           style="opacity:1;fill:#643d3a;fill-opacity:1"
           x="0"
           y="0"
           width="100%"
           height="100%" />
      </g>
    </g>
  </g>
</svg>
