<?xml version="1.0" encoding="UTF-8" standalone="no"?>
<!DOCTYPE svg PUBLIC "-//W3C//DTD SVG 1.1//EN" "http://www.w3.org/Graphics/SVG/1.1/DTD/svg11.dtd">
<svg version="1.1" xmlns="http://www.w3.org/2000/svg" xmlns:xlink="http://www.w3.org/1999/xlink" preserveAspectRatio="xMidYMid meet" viewBox="0 0 200 200"><defs><path d="M181.02 25C184.6 25 187.5 27.9 187.5 31.48C187.5 39.61 187.5 57.51 187.5 65.63C187.5 69.21 184.6 72.12 181.02 72.12C147.31 72.12 52.69 72.12 18.98 72.12C15.4 72.12 12.5 69.21 12.5 65.63C12.5 57.51 12.5 39.61 12.5 31.48C12.5 27.9 15.4 25 18.98 25C52.69 25 147.31 25 181.02 25Z" id="ukEpDl97hy"></path><path d="M166.76 84.62C172.9 84.62 177.88 89.6 177.88 95.74C177.88 124.67 177.88 200.33 177.88 229.26C177.88 235.4 172.9 240.38 166.76 240.38C137.83 240.38 62.17 240.38 33.24 240.38C27.1 240.38 22.12 235.4 22.12 229.26C22.12 200.33 22.12 124.67 22.12 95.74C22.12 89.6 27.1 84.62 33.24 84.62C62.17 84.62 137.83 84.62 166.76 84.62Z" id="g1elCok0nf"></path><path d="M74.04 91.11L80.53 91.11L80.53 220.91L74.04 220.91L74.04 91.11Z" id="S4AjaVGEpf"></path><path d="M119.47 91.11L125.96 91.11L125.96 220.91L119.47 220.91L119.47 91.11Z" id="KknSZXGwEk"></path><path d="M164.9 130.05L164.9 136.54L35.1 136.54L35.1 130.05L164.9 130.05Z" id="XC4s6YlxI9"></path><path d="M164.9 175.48L164.9 181.97L35.1 181.97L35.1 175.48L164.9 175.48Z" id="pqDa7xM1Gs"></path><path d="M96.63 38.46L103.37 38.46L103.37 58.65L96.63 58.65L96.63 38.46Z" id="jljVwVBkpg"></path><path d="M63.75 101.4C65.01 102.67 65.01 104.72 63.75 105.99C60.53 109.2 53.19 116.54 49.98 119.76C48.71 121.02 46.66 121.02 45.39 119.76C44.93 119.3 45.85 120.21 45.39 119.76C44.12 118.49 44.12 116.43 45.39 115.17C48.6 111.95 55.94 104.61 59.16 101.4C60.42 100.13 62.48 100.13 63.75 101.4C64.21 101.86 63.29 100.94 63.75 101.4Z" id="p6lQgpUHUD"></path><path d="M63.75 119.76C62.48 121.02 60.42 121.02 59.16 119.76C55.94 116.54 48.6 109.2 45.39 105.99C44.12 104.72 44.12 102.67 45.39 101.4C45.85 100.94 44.93 101.86 45.39 101.4C46.66 100.13 48.71 100.13 49.98 101.4C53.19 104.61 60.53 111.95 63.75 115.17C65.01 116.43 65.01 118.49 63.75 119.76C63.29 120.21 64.21 119.3 63.75 119.76Z" id="AnBJ31rzXe"></path><path d="M62.4 38.63C63.72 39.94 63.72 42.08 62.4 43.39C59.07 46.72 51.46 54.34 48.13 57.67C46.81 58.98 44.68 58.98 43.37 57.67C42.89 57.19 43.84 58.14 43.37 57.67C42.05 56.35 42.05 54.22 43.37 52.91C46.7 49.58 54.31 41.96 57.64 38.63C58.96 37.32 61.09 37.32 62.4 38.63C62.88 39.11 61.93 38.15 62.4 38.63Z" id="Yfoxuuvinh"></path><path d="M62.4 57.67C61.09 58.98 58.96 58.98 57.64 57.67C54.31 54.34 46.7 46.72 43.37 43.39C42.05 42.08 42.05 39.94 43.37 38.63C43.84 38.15 42.89 39.11 43.37 38.63C44.68 37.32 46.81 37.32 48.13 38.63C51.46 41.96 59.07 49.58 62.4 52.91C63.72 54.22 63.72 56.35 62.4 57.67C61.93 58.14 62.88 57.19 62.4 57.67Z" id="NnSLpAvVia"></path><path d="M109.74 156.01C109.74 161.38 105.37 165.75 100 165.75C94.63 165.75 90.26 161.38 90.26 156.01C90.26 150.64 94.63 146.27 100 146.27C105.37 146.27 109.74 150.64 109.74 156.01Z" id="Ytxndr8WD2"></path><path d="M157.21 48.56C157.21 54.13 152.69 58.65 147.12 58.65C141.54 58.65 137.02 54.13 137.02 48.56C137.02 42.99 141.54 38.46 147.12 38.46C152.69 38.46 157.21 42.99 157.21 48.56Z" id="wdMCZ3MY73"></path></defs><g visibility="inherit"><g visibility="inherit"><g><use xlink:href="#ukEpDl97hy" opacity="1" fill="#d6d6d6" fill-opacity="1"></use></g><g><use xlink:href="#g1elCok0nf" opacity="1" fill="#d6d6d6" fill-opacity="1"></use></g><g><use xlink:href="#S4AjaVGEpf" opacity="1" fill="#666666" fill-opacity="1"></use></g><g><use xlink:href="#KknSZXGwEk" opacity="1" fill="#666666" fill-opacity="1"></use></g><g><use xlink:href="#XC4s6YlxI9" opacity="1" fill="#666666" fill-opacity="1"></use></g><g><use xlink:href="#pqDa7xM1Gs" opacity="1" fill="#666666" fill-opacity="1"></use></g><g><use xlink:href="#jljVwVBkpg" opacity="1" fill="#666666" fill-opacity="1"></use></g><g><g><use xlink:href="#p6lQgpUHUD" opacity="1" fill="#666666" fill-opacity="1"></use></g><g><use xlink:href="#AnBJ31rzXe" opacity="1" fill="#666666" fill-opacity="1"></use></g></g><g><g><use xlink:href="#Yfoxuuvinh" opacity="1" fill="#666666" fill-opacity="1"></use></g><g><use xlink:href="#NnSLpAvVia" opacity="1" fill="#666666" fill-opacity="1"></use></g></g><g><use xlink:href="#Ytxndr8WD2" opacity="1" fill="#666666" fill-opacity="0"></use><g><use xlink:href="#Ytxndr8WD2" opacity="1" fill-opacity="0" stroke="#666666" stroke-width="5" stroke-opacity="1"></use></g></g><g><use xlink:href="#wdMCZ3MY73" opacity="1" fill="#666666" fill-opacity="0"></use><g><use xlink:href="#wdMCZ3MY73" opacity="1" fill-opacity="0" stroke="#666666" stroke-width="5" stroke-opacity="1"></use></g></g></g></g></svg>